<?xml version="1.0" encoding="UTF-8"?> <svg xmlns="http://www.w3.org/2000/svg" width="1507" height="950" viewBox="0 0 1507 950" fill="none"> <g clip-path="url(#clip0_1786_372)"> <path d="M130.227 912.986C213.87 912.986 1432.34 913.289 1433.05 911.107L1433.17 910.827C1433.23 910.7 1433.27 910.564 1433.29 910.425C1433.75 909.334 1621.03 602.932 1329.89 389.636C1215.97 306.179 1337.01 251.083 1246.43 158.175C1142.33 51.425 1028.71 169.521 912.953 121.104C892.5 112.558 871.977 98.8034 851.431 77.6925C839.981 65.9644 827.305 55.4997 813.621 46.4784C811.537 45.1017 809.436 43.7581 807.317 42.4475C799.172 37.4346 790.749 32.8889 782.087 28.8325C776.255 26.1103 770.316 23.5825 764.271 21.2492C754.604 17.542 744.748 14.3506 734.743 11.6883C720.271 7.85237 705.559 4.98958 690.705 3.11916C684.154 2.27139 677.544 1.6025 670.876 1.11249C541.527 -8.55918 395.964 45.8309 320.842 125.322C305.719 141.334 236.948 224.156 291.156 337.999C325.391 409.878 181.998 478.53 131.043 560.605C1.51894 769.264 129.048 910.267 130.227 912.986Z" fill="white"></path> <path d="M132.108 393.726C58.7001 390.232 43.0629 510.944 43.0629 510.944C43.0629 510.944 136.236 626.39 131.789 649.804C127.341 673.218 32.8474 566.65 32.8474 566.65C14.5771 608.886 32.1983 737.183 32.1983 737.183C32.1983 737.183 172.282 774.604 162.213 796.196C152.145 817.788 39.8597 756.735 39.8597 756.735C38.927 802.97 75.4347 858.261 75.4347 858.261C139.715 933.337 232.796 846.906 232.796 846.906C232.796 846.906 281.072 860.925 326.369 908.148C333.324 916.267 341.024 923.716 349.369 930.397L353.078 918.896C350.293 916.958 347.653 914.972 345.157 912.898L345.032 912.853C343.509 911.483 341.346 909.543 338.716 907.138C332.971 901.405 328.653 897.387 325.476 894.7C307.28 877.194 284.058 852.903 281.414 840.938C279.431 841.46 277.388 841.717 275.337 841.704L281.414 840.938C329.948 834.855 368.729 738.689 375.177 680.209C381.626 621.729 358.434 640.662 323.86 662.112C289.287 683.561 275.889 747.558 260.149 762.667C244.409 777.776 243.186 747.879 257.792 712.221C272.399 676.563 314.855 670.074 339.53 612.824C364.206 555.574 267.628 474.743 267.628 474.743C267.12 519.608 221.039 585.471 206.074 583.728C191.11 581.984 227.441 474.177 228.663 455.934C229.885 437.69 205.442 397.193 132.108 393.726Z" fill="#D7E7FF"></path> <path d="M455.478 708.94C443.072 704.511 389.986 709.008 408.094 686.357C431.351 657.257 481.505 656.125 505.729 626.582C519.844 609.379 510.479 586.689 496.26 571.999C471.315 546.229 421.462 596.188 393.691 605.386C387.854 607.306 439.674 525.92 441.25 522.209C445.845 511.385 453.009 490.728 446.14 479.521C429.538 452.399 398.683 477.025 383.485 493.034C383.053 493.491 382.499 493.813 381.889 493.964C381.279 494.114 380.639 494.086 380.045 493.882C379.45 493.679 378.927 493.308 378.537 492.816C378.148 492.323 377.908 491.729 377.847 491.103C375.283 462.256 400.426 451.118 406.517 424.009C414.904 386.669 369.46 399.2 349.792 406.072C316.05 417.885 290.617 447.703 304.594 485.027C317.425 519.298 322.014 538.793 302.658 531.967C277.312 523.014 244.457 533.899 240.098 562.903C235.545 593.247 261.706 629.131 278.22 652.6C284.744 661.852 307.69 677.473 301 690.818C295.413 701.979 276.937 695.895 267.522 694.675C231.994 690.073 216.583 699.829 233.037 737.491C266.321 813.466 337.3 848.003 355.345 820.73C363.873 807.867 383.131 798.405 395.203 789.636C408.137 780.229 421.061 770.737 433.234 760.391C445.641 749.78 484.598 719.305 455.478 708.94Z" fill="#BDD0FB"></path> <path d="M338.471 831.94C337.998 831.61 337.637 831.142 337.438 830.601C337.239 830.059 337.211 829.469 337.359 828.911C337.758 827.334 377.944 670.366 355.811 600.451C338.46 545.556 341.176 481.095 362.429 443.688C373.191 424.739 388.018 412.93 406.509 408.55C406.87 408.465 407.244 408.452 407.61 408.512C407.977 408.571 408.328 408.703 408.643 408.898C408.959 409.093 409.233 409.349 409.45 409.65C409.667 409.951 409.822 410.292 409.907 410.653C409.992 411.014 410.005 411.389 409.946 411.755C409.886 412.121 409.755 412.472 409.56 412.788C409.365 413.103 409.109 413.377 408.808 413.594C408.507 413.811 408.166 413.966 407.805 414.052C390.918 418.032 377.316 428.928 367.357 446.451C346.825 482.595 344.301 545.205 361.217 598.719C370.725 628.781 370.51 676.93 360.571 741.807C353.202 789.96 342.925 829.884 342.839 830.294C342.654 831.017 342.191 831.637 341.55 832.021C340.91 832.404 340.144 832.519 339.419 832.341C339.08 832.268 338.759 832.132 338.471 831.94V831.94Z" fill="#DCE5FE"></path> <path d="M1472 904.5C1472 927.44 1166.23 946 789 946C411.77 946 106 927.44 106 904.5C106 881.56 411.77 863 789 863C1166.23 863 1472 881.56 1472 904.5Z" fill="#6D9ADB"></path> <path d="M1183.31 306.62C1223.25 306.62 1255.62 274.246 1255.62 234.31C1255.62 194.374 1223.25 162 1183.31 162C1143.37 162 1111 194.374 1111 234.31C1111 274.246 1143.37 306.62 1183.31 306.62Z" fill="#C5DDFF"></path> <path d="M1241.92 234.309C1241.92 247.221 1237.65 259.772 1229.79 270.013C1221.92 280.253 1210.89 287.61 1198.42 290.94C1185.94 294.27 1172.72 293.388 1160.79 288.43C1148.87 283.473 1138.92 274.717 1132.48 263.522C1141.57 269.404 1158.61 277.019 1184.38 272.715C1222.86 266.292 1239.34 223.973 1211.85 183.111C1220.97 188.193 1228.56 195.619 1233.85 204.619C1239.14 213.62 1241.92 223.87 1241.92 234.309V234.309Z" fill="#D8E8FF"></path> <path d="M1179.79 233.467L1201.52 268.512L1183.82 231.568L1179.79 233.467Z" fill="#4C1334"></path> <path d="M1183.09 234.916L1179.79 233.467L1203.26 210.478L1183.09 234.916Z" fill="#4C1334"></path> <path d="M1184.38 181.008H1182.38V188.766H1184.38V181.008Z" fill="#4C1334"></path> <path d="M1237.67 231.897V229.898H1229.91V231.897H1237.67Z" fill="#4C1334"></path> <path d="M1136.7 231.897V229.898H1128.94V231.897H1136.7Z" fill="#4C1334"></path> <path d="M1184.38 274.801H1182.38V282.559H1184.38V274.801Z" fill="#4C1334"></path> <path d="M925.069 629.979C925.069 629.979 869.51 620.653 866.481 620.653H711.818C706.844 620.669 702.079 622.652 698.562 626.168C695.045 629.685 693.063 634.45 693.047 639.424V656.397C693.063 661.37 695.045 666.135 698.562 669.652C702.079 673.169 706.844 675.151 711.818 675.167H866.481C867.912 675.162 869.338 674.992 870.73 674.66C888.842 671.676 906.955 656.782 925.069 629.979Z" fill="#E87893"></path> <path d="M924.478 632.277C1135.28 131.341 744.754 130.909 793.393 604.964L924.478 632.277Z" fill="#E87893"></path> <path d="M909.958 627.468C1120.76 116.972 718.932 130.628 767.574 613.73L909.958 627.468Z" fill="#FF809F"></path> <path d="M807 661H791V871H807V661Z" fill="#E87893"></path> <path d="M728.063 870H869.693C869.998 870 870.29 870.121 870.506 870.337C870.721 870.552 870.842 870.844 870.842 871.149V880.702H727V871.078C726.999 870.937 727.025 870.798 727.078 870.667C727.13 870.537 727.208 870.418 727.307 870.318C727.406 870.218 727.524 870.138 727.653 870.083C727.783 870.029 727.922 870 728.063 870V870Z" fill="#E87893"></path> <path d="M712.012 814.447C712.012 814.447 665.115 848.251 673.258 870.96C673.258 870.96 724.572 848.821 730.771 831.382C736.971 813.943 729.719 806.244 729.719 806.244L712.012 814.447Z" fill="url(#paint0_linear_1786_372)"></path> <path d="M719.075 786.12L726.741 808.289C727.897 811.646 726.741 815.444 723.757 817.335C721.797 818.507 719.653 819.336 717.415 819.789C715.495 820.232 713.482 820.031 711.688 819.216C709.893 818.402 708.416 817.02 707.485 815.283L698.312 798.012L719.075 786.12Z" fill="#FFB699"></path> <path d="M793.709 586.585C793.709 586.585 697.382 603.278 656.062 641.45C614.742 679.621 693.991 801.377 693.991 801.377C693.991 801.377 706.973 801.295 722.714 787.81C722.714 787.81 675.713 696.236 716.224 669.535C761.733 639.51 814.214 632.751 814.214 632.751L794.649 589.528L793.709 586.585Z" fill="#1B8BEF"></path> <path d="M681.425 858.401C691.739 853.626 720.94 833.188 725.864 832.289C730.788 831.39 739.323 837.172 739.323 837.172C739.323 837.172 741.4 840.902 739.181 847.423C732.325 855.715 717.105 871.528 696.656 877.418C681.604 881.752 671.077 877.713 664.523 872.983C668.119 867.488 674.55 861.583 681.425 858.401Z" fill="url(#paint1_linear_1786_372)"></path> <path d="M696.645 877.414C717.101 871.524 732.321 855.711 739.17 847.419C737.677 851.821 734.204 857.491 726.807 864.138C708.466 880.626 673.431 886.568 665.971 885.423C660.002 884.505 660.558 878.988 664.505 872.979C671.066 877.727 681.593 881.748 696.645 877.414Z" fill="url(#paint2_linear_1786_372)"></path> <path d="M748.07 822.739C747.954 825.582 742.146 835.329 738.744 840.798C737.953 842.076 736.85 843.131 735.538 843.865C734.226 844.598 732.749 844.986 731.246 844.99C729.157 845.027 727.072 844.776 725.05 844.244C723.591 843.808 722.366 842.809 721.642 841.469C720.919 840.129 720.758 838.556 721.193 837.097L727.826 814.443L748.07 822.739Z" fill="#FFB699"></path> <path d="M886.42 557.672C886.42 557.672 907.813 614.872 886.42 632.277C865.027 649.682 813.998 669.255 802.598 703.898C791.198 738.541 771.853 805.876 745.961 829.719C745.961 829.719 727.773 827.959 720.969 820.711C720.969 820.711 735.714 720.192 745.439 694.397C753.858 672.06 766.269 639.823 790.046 621.802C796.853 616.643 795.667 608.474 792.511 600.54L786.763 586.089L886.42 557.672Z" fill="#1B8BEF"></path> <path d="M663.309 512.838C699.179 515.001 688.003 457.697 687.354 455.418L741.793 493.884C741.793 493.884 738.913 524.528 693.65 540.602C682.199 544.672 671.731 544.851 662.48 542.863C665.86 533.182 666.149 522.69 663.309 512.838Z" fill="#FDCB5C"></path> <path d="M593.957 495.589C607.323 486.294 622.464 495.589 622.464 495.589C640.336 507.28 653.556 512.249 663.31 512.838C666.147 522.686 665.858 533.172 662.482 542.848C642.462 538.543 628.138 524.055 621.912 516.617C620.84 515.322 619.305 514.495 617.634 514.313C615.962 514.13 614.286 514.606 612.959 515.64C610.176 517.837 607.476 520.862 607.964 524.014C608.931 530.258 601.683 532.247 601.138 529.982C600.593 527.718 603.615 514.289 603.615 514.289C603.615 514.289 589.119 528.867 583.472 534.466C577.824 540.065 570.699 534.466 570.699 534.466C570.699 534.466 580.588 504.889 593.957 495.589Z" fill="#FFB699"></path> <path d="M830.56 366.921C830.56 366.921 778.377 346.032 681.264 426.203C681.264 426.203 673.154 442.989 682.01 457.94C690.866 472.89 775.177 545.701 786.763 586.085C786.763 586.085 836.998 602.409 888.946 563.704C888.938 563.704 884.35 451.315 830.56 366.921Z" fill="#FDCB5C"></path> <path d="M738.5 323L736 352.5L753.09 379.418C754.346 380.927 755.141 382.767 755.38 384.716C755.619 386.666 755.291 388.643 754.436 390.411C750.874 397.685 742.414 408.271 723.65 406.824C720.906 406.609 718.265 405.68 715.991 404.128C713.717 402.577 711.888 400.457 710.688 397.98L692.727 360.849L738.5 323Z" fill="#FFB699"></path> <path d="M870.961 500.296C877.019 475.624 815.656 420.622 815.656 420.622L830.577 366.906C830.577 366.906 963.057 455.127 929.291 526.058C924.442 536.222 918.022 543.347 910.565 548.111C899.897 519.392 882.894 506.22 870.961 500.296Z" fill="#FDCB5C"></path> <path d="M778.036 498.17C778.036 498.17 850.776 526.416 868.543 505.172C869.718 503.755 870.55 502.087 870.975 500.296C882.912 506.22 899.911 519.392 910.58 548.111C872.318 572.559 806.919 534.51 789.234 523.29C786.334 521.444 782.828 520.801 779.461 521.499C772.642 522.913 760.858 524.991 754.506 524.013C745.21 522.581 731.856 555.374 716.789 545.257C716.774 545.257 729.677 488.259 778.036 498.17Z" fill="#FFB699"></path> <path d="M671.512 302.522C671.254 303.526 677.532 371.599 677.532 371.599L716.327 367.186L719.96 301.784C719.96 301.784 675.835 285.773 671.512 302.522Z" fill="#FFB699"></path> <path d="M709.851 315.347L710.634 349.927C710.643 350.367 710.593 350.806 710.485 351.232C709.81 353.862 706.826 362.74 697.929 359.133C689.857 355.858 682.441 352.989 676.987 354.023C675.809 354.25 674.756 354.906 674.033 355.864C673.31 356.823 672.969 358.016 673.074 359.211C673.645 365.396 675.193 379.31 678.383 391.195C678.701 392.356 679.442 393.357 680.462 393.999C681.481 394.641 682.703 394.878 683.888 394.664C691.297 393.358 706.844 390.187 718.751 384.674C719.542 384.311 720.221 383.743 720.717 383.027C721.212 382.312 721.506 381.476 721.568 380.608C722.15 371.965 724.011 345.697 725.671 338.456C727.223 331.66 736.116 328.467 739.95 327.389C740.57 327.216 741.149 326.919 741.65 326.515C742.152 326.112 742.566 325.611 742.867 325.042C745.035 320.969 748.463 311.375 736.485 305.973C735.893 305.706 735.36 305.323 734.919 304.845C734.477 304.368 734.137 303.808 733.916 303.196C733.696 302.585 733.601 301.935 733.637 301.287C733.672 300.638 733.838 300.003 734.124 299.419C736.522 294.499 738.156 286.77 729.021 281.413C719.74 275.963 711.862 280.369 707.475 284.166C706.61 284.898 705.516 285.304 704.383 285.314C703.249 285.323 702.149 284.936 701.271 284.218C700.227 283.383 698.802 282.991 696.933 283.89C696.33 284.166 695.677 284.314 695.014 284.323C694.351 284.331 693.693 284.201 693.084 283.941C692.474 283.681 691.925 283.296 691.473 282.811C691.021 282.326 690.675 281.752 690.457 281.126C688.644 276.068 684.444 270.405 674.705 270.995C657.422 272.035 653.442 290.623 656.706 302.127C659.97 313.631 678.644 311.453 688.387 306.887C695.795 303.429 704.323 308.842 707.982 311.636C708.552 312.074 709.017 312.636 709.34 313.278C709.664 313.921 709.838 314.628 709.851 315.347V315.347Z" fill="#40327A"></path> <path d="M725.814 351.053C725.814 351.053 720.965 330.76 728.672 326.765C736.378 322.77 746.7 326.415 742.813 340.306C737.986 357.581 725.814 351.053 725.814 351.053Z" fill="#FFB699"></path> <path d="M740.756 553.871H740.405L587.767 553.703C586.856 553.724 585.951 553.563 585.103 553.229C584.256 552.896 583.483 552.396 582.832 551.759C582.18 551.123 581.663 550.362 581.309 549.523C580.956 548.684 580.773 547.782 580.773 546.871C580.773 545.96 580.956 545.058 581.309 544.219C581.663 543.379 582.18 542.619 582.832 541.983C583.483 541.346 584.256 540.846 585.103 540.512C585.951 540.179 586.856 540.018 587.767 540.039L740.405 540.207C742.18 540.22 743.879 540.923 745.144 542.167C746.41 543.411 747.142 545.099 747.185 546.873C747.229 548.646 746.581 550.368 745.378 551.672C744.175 552.977 742.512 553.763 740.741 553.863L740.756 553.871Z" fill="#40327A"></path> <path d="M450.546 415.284H577.666C582.259 415.287 586.757 416.593 590.636 419.053C594.515 421.512 597.616 425.023 599.577 429.176L658.344 553.789H500.371C497.416 553.788 494.53 552.898 492.088 551.235C489.646 549.571 487.761 547.212 486.677 544.463L441.105 429.164C440.497 427.625 440.274 425.96 440.456 424.315C440.639 422.67 441.221 421.094 442.152 419.726C443.083 418.357 444.335 417.237 445.798 416.463C447.261 415.688 448.891 415.284 450.546 415.284V415.284Z" fill="#40327A"></path> <path d="M540.1 479.175C542.856 487.733 540.819 496.044 535.556 497.741C530.293 499.438 523.787 493.884 521.019 485.304C518.251 476.725 520.299 468.436 525.563 466.739C530.826 465.042 537.347 470.618 540.1 479.175Z" fill="#C7BAFF"></path> <path d="M471.161 881.248C470.291 881.248 469.43 881.075 468.628 880.741C467.863 880.437 467.167 879.982 466.581 879.404C465.996 878.825 465.533 878.135 465.22 877.374C464.906 876.613 464.749 875.796 464.758 874.973C464.767 874.15 464.941 873.337 465.271 872.583L599.795 569.828C600.504 568.3 601.779 567.107 603.351 566.501C604.924 565.894 606.67 565.922 608.221 566.579C608.986 566.883 609.682 567.338 610.268 567.916C610.853 568.495 611.316 569.185 611.63 569.946C611.943 570.708 612.1 571.524 612.091 572.347C612.082 573.17 611.908 573.983 611.579 574.737L477.054 877.492C476.54 878.62 475.709 879.575 474.663 880.242C473.617 880.909 472.401 881.258 471.161 881.248V881.248Z" fill="url(#paint3_linear_1786_372)"></path> <path d="M622.7 881.249C621.46 881.259 620.243 880.91 619.197 880.243C618.151 879.576 617.321 878.621 616.806 877.492L482.282 574.738C481.953 573.983 481.779 573.17 481.77 572.347C481.761 571.524 481.918 570.708 482.231 569.947C482.544 569.185 483.008 568.495 483.593 567.917C484.179 567.338 484.875 566.883 485.64 566.579C487.191 565.921 488.938 565.892 490.511 566.498C492.083 567.104 493.358 568.299 494.066 569.829L628.59 872.583C628.92 873.338 629.094 874.151 629.103 874.974C629.112 875.797 628.955 876.613 628.641 877.374C628.328 878.135 627.865 878.826 627.279 879.404C626.694 879.983 625.998 880.437 625.233 880.741C624.43 881.076 623.57 881.248 622.7 881.249V881.249Z" fill="url(#paint4_linear_1786_372)"></path> <path d="M887.564 881.248C886.696 881.248 885.837 881.075 885.035 880.741C884.27 880.438 883.574 879.983 882.988 879.405C882.402 878.826 881.939 878.136 881.625 877.375C881.312 876.613 881.155 875.797 881.164 874.974C881.173 874.15 881.348 873.337 881.678 872.583L1016.2 569.828C1016.91 568.3 1018.18 567.107 1019.76 566.501C1021.33 565.894 1023.07 565.922 1024.63 566.579C1025.39 566.883 1026.09 567.337 1026.67 567.916C1027.26 568.494 1027.72 569.184 1028.03 569.946C1028.35 570.707 1028.51 571.524 1028.5 572.347C1028.49 573.17 1028.31 573.983 1027.98 574.737L893.462 877.492C892.946 878.621 892.115 879.576 891.069 880.242C890.022 880.909 888.805 881.258 887.564 881.248V881.248Z" fill="url(#paint5_linear_1786_372)"></path> <path d="M1039.11 881.249C1037.87 881.258 1036.65 880.909 1035.61 880.242C1034.56 879.576 1033.73 878.621 1033.22 877.492L898.692 574.738C898.363 573.983 898.189 573.17 898.18 572.347C898.171 571.524 898.328 570.708 898.641 569.947C898.955 569.185 899.418 568.495 900.003 567.917C900.589 567.338 901.285 566.883 902.05 566.579C903.601 565.921 905.348 565.892 906.921 566.498C908.493 567.104 909.768 568.299 910.476 569.829L1045 872.583C1045.33 873.338 1045.5 874.151 1045.51 874.974C1045.52 875.797 1045.36 876.613 1045.05 877.374C1044.74 878.135 1044.28 878.826 1043.69 879.404C1043.1 879.983 1042.41 880.437 1041.64 880.741C1040.84 881.076 1039.98 881.248 1039.11 881.249V881.249Z" fill="url(#paint6_linear_1786_372)"></path> <path d="M1054.89 560.48C1055.06 559.51 1055.03 558.515 1054.82 557.554C1054.6 556.593 1054.19 555.685 1053.61 554.885C1053.08 554.136 1052.39 553.522 1051.57 553.095C1050.76 552.667 1049.86 552.437 1048.94 552.423H436.963C434.586 552.423 432.374 553.777 431.095 556.019C430.464 557.148 430.095 558.406 430.016 559.697C429.937 560.989 430.15 562.282 430.64 563.479L437.272 579.549C438.79 583.227 442.081 585.585 445.703 585.585H1044.75C1048.11 585.585 1051.01 582.91 1051.66 579.21L1054.89 560.48Z" fill="#1B8BEF"></path> <path d="M1022.53 839.863H1021.66C1014.11 859.461 1014.11 881.114 1021.66 900.712H1297.93V839.863H1022.53Z" fill="#FFD259"></path> <path d="M1401.91 870.286C1401.9 876.794 1402.75 883.273 1404.42 889.555H1304.02V851.018H1404.42C1402.75 857.299 1401.9 863.779 1401.91 870.286V870.286Z" fill="#D7E8FF"></path> <path d="M1307.16 851.639H1418.58V839.863H1298.57C1290.95 859.443 1290.95 881.132 1298.57 900.712H1418.61V888.93H1307.16C1303.88 876.709 1303.88 863.854 1307.16 851.633V851.639Z" fill="#FFC159"></path> <path d="M1079.89 790.171H1203.61V778.001H1079.89V790.171Z" fill="#A3C5F1"></path> <path d="M1079.89 839.863H1203.61V827.694H1079.89V839.863Z" fill="#A3C5F1"></path> <path d="M1196.52 839.863H1439.91V778.001H1196.52V839.863Z" fill="#69A4F1"></path> <path d="M1096.6 808.932C1096.6 815.269 1095.76 821.578 1094.09 827.694H1194.49V790.171H1094.09C1095.76 796.287 1096.6 802.596 1096.6 808.932Z" fill="#F4F3EF"></path> <path d="M1187.39 839.862H1200.03C1207.51 819.956 1207.51 797.906 1200.03 778H1187.4C1191.74 787.703 1193.99 798.254 1193.99 808.931C1193.99 819.608 1191.74 830.159 1187.4 839.862H1187.39Z" fill="#A3C5F1"></path> <path d="M1427.75 839.862H1440.38C1447.87 819.957 1447.87 797.905 1440.38 778H1427.75C1432.09 787.704 1434.34 798.254 1434.34 808.931C1434.34 819.608 1432.09 830.159 1427.75 839.862H1427.75Z" fill="#69A4F1"></path> <path d="M678 365.67C678 365.67 689.584 368.977 696.008 365.13C696.021 365.115 686.571 382.593 678 365.67Z" fill="white"></path> <path d="M1246.8 682.007L1247.6 676.639C1247.47 681.412 1248.59 686.135 1250.86 690.337C1257.28 675.732 1263.73 661.069 1272.06 647.475C1287.57 622.089 1309.1 601.105 1330.77 580.291C1357 555.132 1383.49 530.281 1399.95 498.247C1415.51 468.001 1420.82 433.671 1425.94 400.033C1393.33 394.072 1358.66 401.338 1330.42 418.754C1307.64 432.791 1289.05 453.266 1276.47 476.924C1273.43 482.578 1270.76 488.414 1268.44 494.399C1259.78 516.837 1256.17 540.821 1253.01 564.675C1247.9 603.623 1243.89 642.896 1246.8 682.007Z" fill="#3F5A2E"></path> <path d="M1246.8 682.008L1247.6 676.64C1247.47 681.412 1248.59 686.136 1250.86 690.338C1257.28 675.733 1263.73 661.07 1272.06 647.476C1287.57 622.09 1309.1 601.106 1330.77 580.291C1326.05 582.478 1321.14 584.225 1316.11 585.51C1311.29 586.684 1305.96 587.506 1301.59 585.138C1296.75 582.529 1294.55 576.815 1292.99 571.538C1282.11 534.645 1282.19 495.383 1293.23 458.537C1286.87 463.916 1281.24 470.097 1276.47 476.925V476.925C1273.43 482.579 1270.76 488.415 1268.44 494.399C1259.78 516.838 1256.17 540.822 1253.01 564.676C1247.9 603.624 1243.89 642.897 1246.8 682.008Z" fill="#344927"></path> <path d="M1416.4 406.569C1417.86 406.1 1280.4 446.43 1261.68 631.958L1258.75 628.886C1258.75 628.886 1260.67 456.736 1416.4 406.569Z" fill="#547A39"></path> <path d="M1149.7 454.78C1157.68 484.707 1178.9 508.319 1197.73 533.36C1205.94 544.247 1213.71 555.434 1219.74 567.507C1228.39 584.884 1233.26 603.872 1235.89 623.029C1238.26 640.354 1238.84 657.822 1238.97 675.283C1239.03 680.789 1240.7 712.463 1249.41 694.069C1256.73 678.551 1259.19 657.541 1262.85 640.843C1266.67 623.231 1269.65 605.437 1270.89 587.447C1271.21 583.058 1271.39 578.655 1271.49 574.245C1272.09 546.536 1272.44 487.244 1214.22 425.584C1197.72 408.11 1176.6 394.927 1163.18 375C1155.44 386.6 1150.24 399.702 1147.92 413.451C1145.6 427.199 1146.21 441.283 1149.7 454.78V454.78Z" fill="#547A39"></path> <path d="M1180.35 432.838C1173.82 452.641 1175.13 472.405 1177.59 492.195C1178.9 502.906 1180.58 511.033 1189.06 522.057C1190.65 524.131 1196.94 530.915 1197.74 533.387C1205.95 544.273 1213.71 555.46 1219.75 567.534C1228.39 584.91 1233.26 603.898 1235.9 623.056C1238.26 640.38 1238.84 657.848 1238.97 675.31C1239.03 680.815 1240.7 712.49 1249.41 694.095C1256.74 678.578 1259.19 657.568 1262.85 640.869C1266.67 623.258 1269.65 605.464 1270.9 587.474C1271.22 583.084 1271.4 578.681 1271.49 574.272C1268.96 567.207 1268.82 551.396 1266.06 544.43C1257.58 522.989 1249.01 513.081 1240.68 502.932C1218.67 475.999 1194.99 464.336 1180.35 432.838Z" fill="#3F5A2E"></path> <path d="M1255.07 704.414C1254.53 681.069 1255 657.45 1260.72 635.35C1266.43 613.251 1277.94 592.659 1295.44 581.361C1308.06 573.214 1323.8 565.374 1338.99 566.489C1352.6 567.487 1366.04 573.599 1377.06 583.214C1383.57 588.899 1389.08 595.635 1393.37 603.141C1394.82 605.691 1398.69 610.968 1396.02 612.468C1394.49 613.323 1389.74 610.211 1387.96 609.859C1384.75 609.203 1381.53 608.681 1378.3 608.294C1353.61 605.345 1328.59 609.076 1306.8 621.339C1295.36 627.784 1285.01 636.994 1278.2 649.179C1275.32 654.332 1273.12 659.935 1271.02 665.583C1269 671.076 1267.09 676.622 1265.3 682.223C1263.91 686.574 1262.91 695.921 1259.86 699.019C1252.54 706.423 1253.84 688.472 1254.45 684.669" fill="#7B9F3C"></path> <path d="M1334.39 582.615C1334.39 582.615 1260.99 581.539 1255.5 670.627C1255.5 670.627 1251.12 578.897 1334.39 582.615Z" fill="#A0C04B"></path> <path d="M1131.44 641.391C1135.95 641.215 1140.38 640.121 1144.46 638.175C1148.54 636.229 1152.18 633.473 1155.16 630.074C1159.72 624.856 1162.75 618.013 1168.7 614.419C1169.92 613.672 1171.24 613.088 1172.61 612.684C1179.97 610.46 1188.56 613.069 1195.4 617.107C1207.65 624.38 1216.73 635.605 1223.82 647.764C1227.39 653.908 1237.37 683.639 1243.35 681.722L1245.5 642.709C1245.55 641.659 1245.62 640.602 1245.66 639.552C1246.01 633.953 1246.07 628.34 1245.82 622.736C1245.01 610.28 1241.62 598.13 1235.84 587.065C1230.07 576 1222.04 566.263 1212.29 558.48C1204.18 552.075 1194.37 546.98 1184.05 547.443C1178.83 547.665 1173.72 549.296 1168.86 551.292C1155.26 556.849 1141.66 567.083 1139.73 581.668C1138.85 579.314 1135.1 579.451 1133.5 581.381C1131.89 583.312 1129.92 597.036 1129.9 599.547C1129.78 617.146 1127.17 625.978 1131.44 641.391Z" fill="#7B9F3C"></path> <path d="M1160.77 622.507C1168.13 620.276 1175.27 606.519 1195.4 617.073C1208.02 623.687 1216.73 635.572 1223.82 647.73C1227.39 653.875 1237.36 683.606 1243.35 681.688L1245.5 642.675C1245.54 641.625 1245.62 640.568 1245.66 639.518C1244.6 636.144 1243.43 632.835 1242.15 629.591C1238.89 621.365 1234.98 613.284 1229.11 606.702C1223.18 600.119 1215.24 595.686 1206.52 594.094C1174.6 588.106 1166.04 610.583 1160.77 622.507Z" fill="#547A39"></path> <path d="M1167.4 391.515C1167.4 391.515 1176.58 464.648 1215.02 516.896C1253.8 569.613 1251.49 615.136 1252.32 624.77C1252.32 624.77 1261.74 567.871 1223.62 517.065C1185.5 466.259 1167.4 391.515 1167.4 391.515Z" fill="#7B9F3C"></path> <path d="M1225.37 571.231C1225.37 571.231 1168.19 527.528 1131.44 641.39C1131.44 641.39 1153.48 526.054 1217.02 562.321L1225.37 571.231Z" fill="#A0C04B"></path> <path d="M1292.42 778.233L1320.36 670.626H1279.99L1262.4 778.233H1292.42Z" fill="#A64220"></path> <path d="M1186.83 670.626L1212.71 778.233H1262.4L1279.99 670.626H1186.83Z" fill="#D5782C"></path> <path d="M324.999 914.084C217.303 914.084 129.998 907.076 129.998 898.432C129.998 889.788 217.303 882.78 324.999 882.78C432.695 882.78 520 889.788 520 898.432C520 907.076 432.695 914.084 324.999 914.084Z" fill="black" fill-opacity="0.08"></path> <path d="M262.138 774.259H479.504V815.398H262.138V774.259Z" fill="#E4B65A"></path> <g style="mix-blend-mode:multiply" opacity="0.3"> <path d="M274.632 781.403H323.777V808.22H274.632V781.403Z" fill="#DC9530"></path> </g> <g style="mix-blend-mode:multiply" opacity="0.3"> <path d="M336.989 781.403H373.605V808.22H336.989V781.403Z" fill="#DC9530"></path> </g> <g style="mix-blend-mode:multiply" opacity="0.3"> <path d="M383.369 781.403H398.375V808.22H383.369V781.403Z" fill="#DC9530"></path> </g> <path d="M262.139 774.259V774.582L479.469 790.377V774.259H262.139Z" fill="#F4C77F"></path> <path d="M262.138 815.399H479.504V856.575H262.138V815.399Z" fill="#E4B65A"></path> <g style="mix-blend-mode:multiply" opacity="0.3"> <path d="M274.632 822.543H323.777V849.359H274.632V822.543Z" fill="#DC9530"></path> </g> <g style="mix-blend-mode:multiply" opacity="0.3"> <path d="M336.989 822.543H373.605V849.359H336.989V822.543Z" fill="#DC9530"></path> </g> <g style="mix-blend-mode:multiply" opacity="0.3"> <path d="M383.369 822.543H398.375V849.359H383.369V822.543Z" fill="#DC9530"></path> </g> <path d="M262.139 815.399V815.722L479.469 831.518V815.399H262.139Z" fill="#F4C77F"></path> <path d="M262.138 856.539H479.504V897.679H262.138V856.539Z" fill="#E4B65A"></path> <g style="mix-blend-mode:multiply" opacity="0.3"> <path d="M274.632 863.685H323.777V890.501H274.632V863.685Z" fill="#DC9530"></path> </g> <g style="mix-blend-mode:multiply" opacity="0.3"> <path d="M336.989 863.685H373.605V890.501H336.989V863.685Z" fill="#DC9530"></path> </g> <g style="mix-blend-mode:multiply" opacity="0.3"> <path d="M383.369 863.685H398.375V890.501H383.369V863.685Z" fill="#DC9530"></path> </g> <path d="M262.139 856.539V856.862L479.469 872.622V856.539H262.139Z" fill="#F4C77F"></path> <g style="mix-blend-mode:multiply" opacity="0.3"> <path d="M262.136 774.259V897.678H285.039C296.806 885.076 307.236 871.289 316.163 856.538L316.917 855.318C324.687 842.61 331.341 829.254 336.805 815.398C342.246 802.263 345.742 788.404 347.18 774.259H262.136Z" fill="#DC9530"></path> </g> <path d="M225.987 783.989C238.105 771.181 251.532 759.678 266.049 749.67L302.881 711.295L327.759 735.311C343.59 750.46 323.667 796.913 283.281 839.022C242.895 881.131 197.34 902.921 181.508 887.736L156.631 863.9L193.463 825.488C202.825 810.557 213.726 796.649 225.987 783.989V783.989Z" fill="#DC9530"></path> <g style="mix-blend-mode:multiply" opacity="0.3"> <path d="M208.077 811.989C204.128 817.266 200.503 822.579 197.308 827.821L197.056 828.215L167.943 858.586L198.42 887.807C212.385 886.515 233.421 876.427 256.109 858.011L208.077 811.989Z" fill="#DC9530"></path> </g> <g style="mix-blend-mode:multiply" opacity="0.3"> <path d="M229.22 787.113C225.164 791.349 221.287 795.692 217.553 800.072L267.56 848.032C271.724 844.443 275.888 840.171 280.053 835.863C283.176 832.596 286.191 829.293 289.027 826.063L238.769 777.743C235.467 780.759 232.308 783.882 229.22 787.113Z" fill="#DC9530"></path> </g> <g style="mix-blend-mode:multiply" opacity="0.3"> <path d="M247.169 770.058L296.35 817.229C299.94 812.742 303.242 808.254 306.258 803.911L260.057 759.576C255.749 762.855 251.453 766.349 247.169 770.058Z" fill="#DC9530"></path> </g> <g style="mix-blend-mode:multiply" opacity="0.3"> <path d="M275.388 746.69L269.178 753.152L312.256 794.615C313.943 791.887 315.487 789.194 316.887 786.61L275.388 746.69Z" fill="#DC9530"></path> </g> <path d="M201.111 760.152C160.725 802.225 140.801 848.677 156.633 863.862C172.464 879.047 217.947 857.365 258.405 815.112C298.862 772.86 318.714 726.586 302.883 711.401C287.052 696.216 241.497 718.043 201.111 760.152Z" fill="#F4C77F"></path> <path d="M210.771 769.303C183.847 797.376 170.564 828.32 181.118 838.444C182.876 840.051 185.078 841.09 187.437 841.423C201.078 843.685 226.279 829.613 248.967 805.955C271.655 782.298 284.686 756.523 281.85 742.989C281.443 740.645 280.313 738.486 278.619 736.815C267.957 726.692 237.587 741.23 210.771 769.303Z" fill="#E4B65A"></path> <path d="M210.773 769.303C183.849 797.376 170.566 828.32 181.12 838.444C182.878 840.051 185.08 841.09 187.439 841.423C184.603 827.889 197.598 802.15 220.322 778.457C243.045 754.764 268.21 740.728 281.852 742.989C281.444 740.645 280.315 738.486 278.621 736.815C267.959 726.692 237.589 741.23 210.773 769.303Z" fill="#DC9530"></path> <path opacity="0.7" d="M569.867 166.29L517.567 163.57C516.57 163.506 515.571 163.653 514.635 164C513.699 164.348 512.846 164.889 512.133 165.588C511.42 166.287 510.862 167.129 510.496 168.058C510.129 168.987 509.963 169.983 510.007 170.98L511.357 219.09C511.4 220.027 511.63 220.946 512.032 221.793C512.435 222.64 513.003 223.398 513.702 224.023C514.402 224.648 515.219 225.127 516.105 225.432C516.992 225.737 517.931 225.863 518.867 225.8L568.537 223.35C570.22 223.205 571.79 222.44 572.943 221.204C574.095 219.969 574.749 218.35 574.777 216.66L575.997 173.57C576.127 169.8 573.387 166.48 569.867 166.29Z" fill="#BDD0FB"></path> <path d="M596.399 64.9007L560.019 63.0107C559.326 62.965 558.631 63.066 557.979 63.3072C557.328 63.5483 556.734 63.9242 556.238 64.4102C555.741 64.8962 555.353 65.4814 555.098 66.1277C554.843 66.7739 554.728 67.4667 554.759 68.1607L555.699 101.621C555.727 102.276 555.886 102.92 556.166 103.513C556.447 104.106 556.844 104.637 557.333 105.074C557.823 105.512 558.395 105.846 559.016 106.059C559.637 106.271 560.294 106.357 560.949 106.311L595.499 104.601C596.67 104.5 597.763 103.969 598.566 103.11C599.369 102.252 599.826 101.126 599.849 99.9507L600.689 69.9507C600.765 68.7177 600.361 67.5032 599.561 66.5617C598.761 65.6203 597.628 65.025 596.399 64.9007V64.9007Z" fill="#7D97F4"></path> <path d="M451.276 324.134C454.785 323.531 458.394 323.981 461.648 325.428C464.901 326.874 467.653 329.251 469.557 332.259C471.461 335.268 472.431 338.773 472.345 342.333C472.259 345.892 471.121 349.346 469.074 352.259C467.027 355.172 464.163 357.414 460.843 358.701C457.524 359.988 453.897 360.263 450.422 359.491C446.946 358.72 443.776 356.936 441.313 354.365C438.85 351.794 437.204 348.551 436.582 345.046C436.167 342.707 436.218 340.309 436.733 337.991C437.248 335.672 438.216 333.478 439.581 331.535C440.947 329.591 442.683 327.937 444.69 326.667C446.697 325.397 448.936 324.536 451.276 324.134V324.134Z" fill="#DC9530"></path> <path d="M502.388 264.54C505.348 264.063 508.384 264.473 511.112 265.717C513.84 266.962 516.139 268.986 517.72 271.534C519.3 274.083 520.091 277.041 519.994 280.039C519.896 283.036 518.914 285.937 517.171 288.377C515.428 290.817 513.002 292.687 510.199 293.751C507.395 294.816 504.34 295.027 501.417 294.358C498.493 293.69 495.833 292.171 493.771 289.994C491.709 287.817 490.337 285.079 489.828 282.124C489.478 280.142 489.527 278.111 489.971 276.149C490.416 274.186 491.247 272.332 492.417 270.695C493.586 269.058 495.07 267.67 496.782 266.614C498.494 265.557 500.4 264.852 502.388 264.54V264.54Z" fill="#FF809F"></path> <path d="M376.889 186.089C378.253 185.869 379.65 186.058 380.906 186.631C382.163 187.205 383.221 188.137 383.949 189.311C384.677 190.484 385.041 191.847 384.996 193.228C384.951 194.608 384.499 195.945 383.697 197.069C382.894 198.193 381.777 199.054 380.486 199.544C379.195 200.034 377.788 200.132 376.442 199.824C375.096 199.516 373.871 198.816 372.922 197.814C371.972 196.811 371.341 195.549 371.106 194.188C370.945 193.276 370.967 192.34 371.172 191.436C371.377 190.532 371.76 189.678 372.298 188.924C372.837 188.17 373.52 187.531 374.308 187.044C375.097 186.557 375.974 186.233 376.889 186.089V186.089Z" fill="#FDCB5C"></path> <path d="M433.87 207.144C436.376 206.705 438.953 207.279 441.037 208.739C443.121 210.199 444.541 212.425 444.985 214.93C445.203 216.167 445.176 217.435 444.905 218.662C444.633 219.888 444.123 221.049 443.403 222.079C442.682 223.108 441.767 223.985 440.707 224.66C439.648 225.336 438.466 225.796 437.229 226.014C435.992 226.233 434.724 226.205 433.498 225.934C432.271 225.662 431.11 225.152 430.081 224.432C429.052 223.712 428.175 222.796 427.499 221.737C426.824 220.678 426.364 219.496 426.146 218.259C425.706 215.762 426.271 213.192 427.718 211.11C429.165 209.028 431.376 207.602 433.87 207.144V207.144Z" fill="#1B8BEF"></path> </g> <defs> <linearGradient id="paint0_linear_1786_372" x1="672.054" y1="780.379" x2="701.045" y2="837.395" gradientUnits="userSpaceOnUse"> <stop stop-color="#09005D"></stop> <stop offset="1" stop-color="#1A0F91"></stop> </linearGradient> <linearGradient id="paint1_linear_1786_372" x1="74797.2" y1="148050" x2="64602.8" y2="169484" gradientUnits="userSpaceOnUse"> <stop stop-color="#09005D"></stop> <stop offset="1" stop-color="#1A0F91"></stop> </linearGradient> <linearGradient id="paint2_linear_1786_372" x1="739.177" y1="866.488" x2="661.517" y2="866.488" gradientUnits="userSpaceOnUse"> <stop stop-color="#4042E2"></stop> <stop offset="1" stop-color="#4F52FF"></stop> </linearGradient> <linearGradient id="paint3_linear_1786_372" x1="237396" y1="889692" x2="295596" y2="889692" gradientUnits="userSpaceOnUse"> <stop stop-color="#4042E2"></stop> <stop offset="1" stop-color="#4F52FF"></stop> </linearGradient> <linearGradient id="paint4_linear_1786_372" x1="244135" y1="889698" x2="302334" y2="889698" gradientUnits="userSpaceOnUse"> <stop stop-color="#4042E2"></stop> <stop offset="1" stop-color="#4F52FF"></stop> </linearGradient> <linearGradient id="paint5_linear_1786_372" x1="402276" y1="889692" x2="460477" y2="889692" gradientUnits="userSpaceOnUse"> <stop stop-color="#4042E2"></stop> <stop offset="1" stop-color="#4F52FF"></stop> </linearGradient> <linearGradient id="paint6_linear_1786_372" x1="409018" y1="889698" x2="467218" y2="889698" gradientUnits="userSpaceOnUse"> <stop stop-color="#4042E2"></stop> <stop offset="1" stop-color="#4F52FF"></stop> </linearGradient> <clipPath id="clip0_1786_372"> <rect width="1507" height="950" fill="white"></rect> </clipPath> </defs> </svg> 